<svg xmlns="http://www.w3.org/2000/svg" width="809.611" height="510.059" viewBox="0 0 214.209 134.953"><defs><clipPath id="a" clipPathUnits="userSpaceOnUse"><path d="M0 600h600V0H0z"/></clipPath></defs><g clip-path="url(#a)" transform="matrix(.35278 0 0 -.35278 .99 178.405)"><g style="opacity:.996"><path style="fill:#a7a3ae;fill-opacity:1;fill-rule:evenodd;stroke:none" d="M300.795 151.518c151.607 0 275.258 17.486 275.258 38.927 0 21.442-123.651 38.928-275.258 38.928-151.607 0-275.257-17.486-275.257-38.928 0-21.441 123.65-38.927 275.257-38.927"/><path style="fill:#fff;fill-opacity:1;fill-rule:evenodd;stroke:none" d="M144.804 222.697h311.982v196.367H144.804z"/><path style="fill:#2d2b2d;fill-opacity:1;fill-rule:evenodd;stroke:none" d="M146.142 224.034h309.309v193.693H146.142z"/><path style="fill:#6398d7;fill-opacity:1;fill-rule:evenodd;stroke:none" d="M151.48 229.373h298.629v183.016H151.48z"/><path style="fill:#fff;fill-opacity:1;fill-rule:evenodd;stroke:none" d="M53.814 181.398h493.961l-90.931 41.763H144.747z"/><path style="fill:#ded9e2;fill-opacity:1;fill-rule:evenodd;stroke:none" d="M112.794 200.731h376l-45.71 20.995H158.506z"/><path style="fill:#2d2b2d;fill-opacity:1;fill-rule:evenodd;stroke:none" d="M53.814 181.398h493.961l-6.554-6.24H60.371z"/><path style="fill:#fff;fill-opacity:1;fill-rule:evenodd;stroke:none" d="M208.012 229.373h185.566v247.996H208.012z"/><path style="fill:#9c9aa2;fill-opacity:1;fill-rule:evenodd;stroke:none" d="M208.012 477.369h185.566v-9.508H208.012z"/><path style="fill:#fff;fill-opacity:1;fill-rule:evenodd;stroke:none" d="M349.948 474.608h8.451a1.938 1.938 0 0 0 1.933-1.933c0-1.063-.87-1.933-1.933-1.933h-8.451c-1.063 0-1.933.87-1.933 1.933 0 1.064.87 1.933 1.933 1.933m29.769 0h8.451a1.939 1.939 0 0 0 1.933-1.933 1.94 1.94 0 0 0-1.933-1.933h-8.451a1.94 1.94 0 0 0-1.934 1.933c0 1.064.87 1.933 1.934 1.933m-14.885 0h8.451a1.938 1.938 0 0 0 1.934-1.933 1.94 1.94 0 0 0-1.934-1.933h-8.451a1.94 1.94 0 0 0-1.933 1.933c0 1.064.871 1.933 1.933 1.933"/><path style="fill:#6398d7;fill-opacity:1;fill-rule:evenodd;stroke:none" d="M270.841 255.894h24.736v-6.239h-24.736zm-17.235 13.631h32.313v-6.24h-32.313zm-22.258 27.263h11.822v-6.241h-11.822zm43.91 13.63h40.372v-6.24h-40.372zm-7.292 13.632h25.793v-6.241h-25.793zm-15.243 13.63h15.3v-6.239h-15.3zm41.75 27.263h33.883v-6.24h-33.883zm-32.14 13.632h11.102v-6.241h-11.102zm-4.751 40.893h35.292v-6.24h-35.292zm7.068 13.632h19.386v-6.241H264.65zm22.648-190.838h25.352v-6.238h-25.352z"/><path style="fill:#ded9e2;fill-opacity:1;fill-rule:evenodd;stroke:none" d="M306.013 255.894h39.553v-6.239h-39.553zm-74.665 0h29.055v-6.239h-29.055zm-13.67 0h6.241v-6.239h-6.241zm78.678 13.631h24.577v-6.24h-24.577zm-78.678 0h6.241v-6.24h-6.241zm99.111 13.632h9.998v-6.241h-9.998zm-55.06 0h44.624v-6.241h-44.677zm-30.381 0h19.986l-.055-6.241h-19.931zm-13.67 0h6.241v-6.241h-6.241zm88.335 13.631h29.501v-6.241h-29.501zm-52.404 0h41.968v-6.241h-41.968zm-35.931 0h6.241v-6.241h-6.241zm108.389 13.63h36.287v-6.24h-36.287zm-108.389 0h6.241v-6.24h-6.241zm83.132 13.632h6.974v-6.241h-6.974zm-69.462 0h26.18v-6.241h-26.18zm-13.67 0h6.241v-6.241h-6.241zm93.586 13.63h18.728v-6.239h-18.728zm-32.805 0h22.368v-6.239h-22.368zm-47.111 0h10.939v-6.239h-10.939zm-13.67 0h6.241v-6.239h-6.241zm71.165 13.632h25.792v-6.241h-25.792zm-25.793 0h15.354v-6.241H263.05zm-45.372 0h6.241v-6.241h-6.241zm121.115 13.631h22.233v-6.24h-22.233zm-66.518 0h11.762v-6.24h-11.762zm-18.447 0h8.009v-6.24h-8.009zm-22.48 0h12.042v-6.24h-12.042zm-13.67 0h6.241v-6.24h-6.241zm66.195 13.632h16.954v-6.241h-16.954zm-52.525 0h20.547v-6.241h-20.547zm-13.67 0h6.241v-6.241h-6.241zm53.048 13.631h34.518v-6.24h-34.518zm-21.319 0h10.882v-6.24h-10.882zm-18.059 0h7.623v-6.24h-7.623zm-13.67 0h6.241v-6.24h-6.241zm64.866 13.631h45.813v-6.241h-45.813zm-29.823 0h19.387v-6.241h-19.387zm-35.043 0h6.241v-6.241h-6.241zm13.67 13.631h15.795v-6.24h-15.795zm-13.67 0h6.241v-6.24h-6.241zM317.89 433.1h31.066v-6.241H317.89zm-23.416 0h12.98v-6.241h-12.98zm-63.126 0h22.865v-6.241h-22.865zm-13.67 0h6.241v-6.241h-6.241zm79.668 13.631h45.451v-6.241h-45.451zm-49.264 0h38.827v-6.241h-38.827zm-30.404-204.469h6.241v-6.238h-6.241zm39.904 218.1h52.303v-6.241h-52.303zm-26.234 0h15.796v-6.241h-15.796zm-13.67 0h6.241v-6.241h-6.241zm0-13.631h6.241v-6.241h-6.241zm26.986-204.469h32.199v-6.238h-32.199z"/><path style="fill:#fff;fill-opacity:1;fill-rule:evenodd;stroke:none" d="m197.189 308.012 8.494-13.707-28.254-17.509-8.496 13.707z"/><path style="fill:#2d2b2d;fill-opacity:1;fill-rule:evenodd;stroke:none" d="m170.607 303.58 19.275-31.106-84.342-52.266-19.275 31.106zM260.375 254.618c45.749 0 83.063 37.314 83.063 83.062 0 45.751-37.314 83.065-83.063 83.065-45.75 0-83.064-37.314-83.064-83.065 0-45.748 37.314-83.062 83.064-83.062"/><path style="fill:#b6d8f2;fill-opacity:1;fill-rule:evenodd;stroke:none" d="M260.375 281.178c31.12 0 56.502 25.382 56.502 56.502 0 31.122-25.382 56.504-56.502 56.504-31.121 0-56.504-25.382-56.504-56.504 0-31.12 25.383-56.502 56.504-56.502"/><path style="fill:#6092d4;fill-opacity:1;fill-rule:evenodd;stroke:none" d="M231.348 296.788h11.822v-6.241h-11.822zm36.618 27.262h25.793v-6.241h-25.793zm-15.243 13.63h15.3v-6.239h-15.3zm9.61 40.895h11.102v-6.241h-11.102zm47.54-68.157a56.775 56.775 0 0 0-4.001-6.24h-30.614v6.24zm0 54.525a56.658 56.658 0 0 0 2.96-6.24h-18.36v6.24z"/><path style="fill:#90bbe7;fill-opacity:1;fill-rule:evenodd;stroke:none" d="M217.678 310.418h6.241v-6.24h-6.241zm83.132 13.632h6.974v-6.241h-6.974zm-69.462 0h26.18v-6.241h-26.18zm-13.67 0h6.241v-6.241h-6.241zm60.781 13.63h22.368v-6.239h-22.368zm-47.111 0h10.939v-6.239h-10.939zm-13.67 0h6.241v-6.239h-6.241zm71.165 13.632h25.792v-6.241h-25.792zm-25.793 0h15.354v-6.241H263.05zm-45.372 0h6.241v-6.241h-6.241zm54.597 13.631h11.762v-6.24h-11.762zm-18.447 0h8.009v-6.24h-8.009zm-22.48 0h12.042v-6.24h-12.042zm-13.67 0h6.241v-6.24h-6.241zm13.67 13.632h20.547v-6.241h-20.547zm18.059 13.631h10.882v-6.24h-10.882zm-18.059-6.04a56.279 56.279 0 0 0 7.623 3.818v-4.018h-7.623zm-13.67-11.476a56.408 56.408 0 0 0 3.706 3.885h2.534v-6.241h-6.24zm6.24-80.174a56.911 56.911 0 0 0-2.534 2.272h2.534zm27.405-12.614a56.78 56.78 0 0 0-5.805 1.255h5.816zm23.906 1.255a56.431 56.431 0 0 0-13.517-1.962l.017 1.962zm20.348 10.329a57.872 57.872 0 0 0-4.038-2.939h-37.93v6.241h41.968zm21.299 44.194c0-2.108-.119-4.191-.344-6.239h-5.268v6.239zm-17.512 40.895c.497-.474.984-.961 1.463-1.452v-4.789h-16.954v6.241zm-24.135 13.631a56.169 56.169 0 0 0 14.504-6.24h-19.007v6.24z"/><path style="fill:#fff;fill-opacity:1;fill-rule:evenodd;stroke:none" d="M260.375 334.43c18.78 0 34.098 12.305 34.098 27.393 0 15.088-15.318 27.394-34.098 27.394-18.782 0-34.101-12.306-34.101-27.394s15.319-27.393 34.101-27.393"/><path style="fill:#bbddf5;fill-opacity:1;fill-rule:evenodd;stroke:none" d="M263.05 351.312h15.354v-6.241H263.05zm9.225 13.631h11.762v-6.24h-11.762zm-18.447 0h8.009v-6.24h-8.009zm-22.48 0h12.042v-6.24h-12.042zm18.059 22.826a41.743 41.743 0 0 0 10.882 1.447v-3.25h-10.882zm-18.059-11.565c.63.82 1.315 1.611 2.046 2.371h18.501v-6.241h-20.547zm60.521-24.892a26.095 26.095 0 0 0-3.026-4.568v4.568zm-4.516 27.263c1.828-1.898 3.354-3.994 4.516-6.241h-7.996v6.241zm-10.857 7.391h-5.77v1.963a38.878 38.878 0 0 0 5.77-1.963"/><path style="fill:#b7daf4;fill-opacity:1;fill-rule:evenodd;stroke:none" d="M262.333 378.575h11.102v-6.241h-11.102zm5.69-43.452a42.044 42.044 0 0 0-7.649-.693c-2.631 0-5.191.238-7.651.693v2.557h15.3z"/></g></g></svg>